# xmcd
#
# Track frame offsets: 
#        150
#        17114
#        34128
#        57556
#        79134
#        92302
#        114356
#        128852
#        148569
#        161102
#        174638
#        191782
#
# Disc length: 2802 seconds
#
# Revision: 1
# Processed by: cddbd v1.5.2PL0 Copyright (c) Steve Scherf et al.
# Submitted via: ExactAudioCopy v0.99pb5
#
DISCID=a10af00c
DTITLE=Patty Griffin - American Kid
DYEAR=2013
DGENRE=Folk-Rock
TTITLE0=Go Wherever You Wanna Go
TTITLE1=Don't Let Me Die in Florida
TTITLE2=Ohio
TTITLE3=Wild Old Dog
TTITLE4=Mom and Dad's Waltz
TTITLE5=Faithful Son
TTITLE6=Highway Song
TTITLE7=That Kind of Lonely
TTITLE8=Irish Boy
TTITLE9=Get Ready Marie
TTITLE10=Not a Bad Man
TTITLE11=Gonna Miss You When You're Gone
EXTD=
EXTT0=
EXTT1=
EXTT2=
EXTT3=
EXTT4=
EXTT5=
EXTT6=
EXTT7=
EXTT8=
EXTT9=
EXTT10=
EXTT11=
PLAYORDER=
